<mxfile host="app.diagrams.net" agent="Mozilla/5.0 (Windows NT 10.0; Win64; x64) AppleWebKit/537.36 (KHTML, like Gecko) Chrome/129.0.0.0 Safari/537.36" version="24.7.17">
  <diagram name="Página-1" id="xyvB-IE4hIzUz1gCIs1B">
    <mxGraphModel dx="672" dy="380" grid="1" gridSize="10" guides="1" tooltips="1" connect="1" arrows="1" fold="1" page="1" pageScale="1" pageWidth="827" pageHeight="1169" math="0" shadow="0">
      <root>
        <mxCell id="0" />
        <mxCell id="1" parent="0" />
        <mxCell id="O75w4dWW9IkjZu1QRVyg-1" value="Usuário" style="rounded=0;whiteSpace=wrap;html=1;" vertex="1" parent="1">
          <mxGeometry x="329" y="70" width="170" height="40" as="geometry" />
        </mxCell>
        <mxCell id="O75w4dWW9IkjZu1QRVyg-4" value="-nome: String&#xa;-email: String&#xa;-senha: String" style="rounded=0;whiteSpace=wrap;html=1;" vertex="1" parent="1">
          <mxGeometry x="329" y="110" width="170" height="70" as="geometry" />
        </mxCell>
        <mxCell id="O75w4dWW9IkjZu1QRVyg-6" value="+definirNome()&#xa;+definirEmail()&#xa;+definirSenha()&#xa;+alterarSenha()&#xa;+excluirUsuario()&#xa;+verifLogin(): bool&#xa;+excluirItem()&#xa;+mostrarEstoque()&#xa;+mostrarItem(): Item" style="rounded=0;whiteSpace=wrap;html=1;" vertex="1" parent="1">
          <mxGeometry x="329" y="180" width="171" height="150" as="geometry" />
        </mxCell>
        <mxCell id="O75w4dWW9IkjZu1QRVyg-7" value="Item" style="rounded=0;whiteSpace=wrap;html=1;" vertex="1" parent="1">
          <mxGeometry x="150" y="380" width="170" height="40" as="geometry" />
        </mxCell>
        <mxCell id="O75w4dWW9IkjZu1QRVyg-9" value="&lt;div&gt;+addNome()&lt;/div&gt;&lt;div&gt;+addCodigo()&lt;/div&gt;&lt;div&gt;+addQuantidade()&lt;/div&gt;&lt;div&gt;+addLocalizacao()&lt;/div&gt;&lt;div&gt;+alterarNome()&lt;/div&gt;&lt;div&gt;&lt;span style=&quot;background-color: initial;&quot;&gt;+alterarCodigo()&lt;br&gt;+alterarQuantidade()&lt;/span&gt;&lt;/div&gt;&lt;div&gt;+alterarLocalizacao()&lt;/div&gt;&lt;div&gt;+mostrarItem(): Item&lt;br&gt;&lt;/div&gt;&lt;div&gt;+excluirItem()&lt;/div&gt;" style="rounded=0;whiteSpace=wrap;html=1;" vertex="1" parent="1">
          <mxGeometry x="150" y="490" width="170" height="150" as="geometry" />
        </mxCell>
        <mxCell id="O75w4dWW9IkjZu1QRVyg-10" value="+nome: String&lt;div&gt;+codigo: String&lt;br&gt;+quantidade: Int&lt;br&gt;+localizacao: String&lt;/div&gt;" style="rounded=0;whiteSpace=wrap;html=1;" vertex="1" parent="1">
          <mxGeometry x="150" y="420" width="170" height="70" as="geometry" />
        </mxCell>
        <mxCell id="O75w4dWW9IkjZu1QRVyg-11" value="Estoque" style="rounded=0;whiteSpace=wrap;html=1;" vertex="1" parent="1">
          <mxGeometry x="520" y="380" width="170" height="40" as="geometry" />
        </mxCell>
        <mxCell id="O75w4dWW9IkjZu1QRVyg-13" value="&lt;div&gt;+nome:&lt;/div&gt;&lt;div&gt;+posicao:&lt;/div&gt;" style="rounded=0;whiteSpace=wrap;html=1;" vertex="1" parent="1">
          <mxGeometry x="520" y="420" width="170" height="70" as="geometry" />
        </mxCell>
        <mxCell id="O75w4dWW9IkjZu1QRVyg-14" value="+alterarEstoque()&lt;div&gt;+excluirEstoque()&lt;/div&gt;&lt;div&gt;+addEstoque()&lt;/div&gt;&lt;div&gt;&lt;span style=&quot;background-color: initial;&quot;&gt;+mostrarEstoque()&lt;/span&gt;&lt;/div&gt;" style="rounded=0;whiteSpace=wrap;html=1;" vertex="1" parent="1">
          <mxGeometry x="520" y="490" width="170" height="150" as="geometry" />
        </mxCell>
        <mxCell id="O75w4dWW9IkjZu1QRVyg-16" value="" style="endArrow=classic;html=1;rounded=0;strokeWidth=4;exitX=0;exitY=0.25;exitDx=0;exitDy=0;entryX=1;entryY=0.25;entryDx=0;entryDy=0;" edge="1" parent="1" source="O75w4dWW9IkjZu1QRVyg-13" target="O75w4dWW9IkjZu1QRVyg-10">
          <mxGeometry width="50" height="50" relative="1" as="geometry">
            <mxPoint x="490" y="470" as="sourcePoint" />
            <mxPoint x="360" y="520" as="targetPoint" />
          </mxGeometry>
        </mxCell>
        <mxCell id="O75w4dWW9IkjZu1QRVyg-18" value="&lt;b&gt;Receber&lt;/b&gt;" style="text;html=1;align=center;verticalAlign=middle;resizable=0;points=[];autosize=1;strokeColor=none;fillColor=none;" vertex="1" parent="1">
          <mxGeometry x="390" y="400" width="70" height="30" as="geometry" />
        </mxCell>
        <mxCell id="O75w4dWW9IkjZu1QRVyg-21" value="&lt;font style=&quot;font-size: 21px;&quot;&gt;&lt;b&gt;*&lt;/b&gt;&lt;/font&gt;" style="text;html=1;align=center;verticalAlign=middle;resizable=0;points=[];autosize=1;strokeColor=none;fillColor=none;strokeWidth=6;" vertex="1" parent="1">
          <mxGeometry x="480" y="373" width="30" height="40" as="geometry" />
        </mxCell>
        <mxCell id="O75w4dWW9IkjZu1QRVyg-22" value="&lt;font style=&quot;font-size: 21px;&quot;&gt;&lt;b&gt;*&lt;/b&gt;&lt;/font&gt;" style="text;html=1;align=center;verticalAlign=middle;resizable=0;points=[];autosize=1;strokeColor=none;fillColor=none;" vertex="1" parent="1">
          <mxGeometry x="325" y="373" width="30" height="40" as="geometry" />
        </mxCell>
        <mxCell id="O75w4dWW9IkjZu1QRVyg-27" value="" style="endArrow=none;html=1;rounded=0;exitX=1;exitY=0.5;exitDx=0;exitDy=0;entryX=0;entryY=0.5;entryDx=0;entryDy=0;strokeWidth=4;" edge="1" parent="1" source="O75w4dWW9IkjZu1QRVyg-9" target="O75w4dWW9IkjZu1QRVyg-31">
          <mxGeometry width="50" height="50" relative="1" as="geometry">
            <mxPoint x="320" y="565" as="sourcePoint" />
            <mxPoint x="480" y="565.0000000000001" as="targetPoint" />
          </mxGeometry>
        </mxCell>
        <mxCell id="O75w4dWW9IkjZu1QRVyg-31" value="" style="rhombus;whiteSpace=wrap;html=1;fillColor=#000000;" vertex="1" parent="1">
          <mxGeometry x="500" y="555" width="20" height="20" as="geometry" />
        </mxCell>
        <mxCell id="O75w4dWW9IkjZu1QRVyg-32" value="" style="endArrow=none;html=1;rounded=0;strokeWidth=4;entryX=0.553;entryY=0.073;entryDx=0;entryDy=0;entryPerimeter=0;exitX=1;exitY=0.5;exitDx=0;exitDy=0;" edge="1" parent="1" source="O75w4dWW9IkjZu1QRVyg-41" target="O75w4dWW9IkjZu1QRVyg-11">
          <mxGeometry width="50" height="50" relative="1" as="geometry">
            <mxPoint x="500" y="270" as="sourcePoint" />
            <mxPoint x="450" y="550" as="targetPoint" />
            <Array as="points">
              <mxPoint x="614" y="255" />
            </Array>
          </mxGeometry>
        </mxCell>
        <mxCell id="O75w4dWW9IkjZu1QRVyg-43" value="&lt;font style=&quot;font-size: 15px;&quot;&gt;&lt;b&gt;1..*&lt;/b&gt;&lt;/font&gt;" style="edgeLabel;html=1;align=center;verticalAlign=middle;resizable=0;points=[];" vertex="1" connectable="0" parent="O75w4dWW9IkjZu1QRVyg-32">
          <mxGeometry x="0.3118" y="1" relative="1" as="geometry">
            <mxPoint as="offset" />
          </mxGeometry>
        </mxCell>
        <mxCell id="O75w4dWW9IkjZu1QRVyg-34" value="" style="endArrow=none;html=1;rounded=0;strokeWidth=4;entryX=0.25;entryY=0;entryDx=0;entryDy=0;exitX=0;exitY=0.5;exitDx=0;exitDy=0;" edge="1" parent="1" source="O75w4dWW9IkjZu1QRVyg-37" target="O75w4dWW9IkjZu1QRVyg-7">
          <mxGeometry width="50" height="50" relative="1" as="geometry">
            <mxPoint x="510" y="265" as="sourcePoint" />
            <mxPoint x="624" y="393" as="targetPoint" />
            <Array as="points">
              <mxPoint x="192" y="180" />
            </Array>
          </mxGeometry>
        </mxCell>
        <mxCell id="O75w4dWW9IkjZu1QRVyg-37" value="" style="rhombus;whiteSpace=wrap;html=1;fillColor=#000000;" vertex="1" parent="1">
          <mxGeometry x="309" y="170" width="20" height="20" as="geometry" />
        </mxCell>
        <mxCell id="O75w4dWW9IkjZu1QRVyg-41" value="" style="rhombus;whiteSpace=wrap;html=1;fillColor=#000000;" vertex="1" parent="1">
          <mxGeometry x="500" y="245" width="20" height="20" as="geometry" />
        </mxCell>
        <mxCell id="O75w4dWW9IkjZu1QRVyg-44" value="&lt;font style=&quot;font-size: 15px;&quot;&gt;&lt;b&gt;1..*&lt;/b&gt;&lt;/font&gt;" style="edgeLabel;html=1;align=center;verticalAlign=middle;resizable=0;points=[];" vertex="1" connectable="0" parent="1">
          <mxGeometry x="280.0040302936454" y="244.9954772241652" as="geometry">
            <mxPoint x="-88" y="20" as="offset" />
          </mxGeometry>
        </mxCell>
      </root>
    </mxGraphModel>
  </diagram>
</mxfile>
